<svg version="1.1" xmlns="http://www.w3.org/2000/svg" xmlns:xlink="http://www.w3.org/1999/xlink" width="714" height="614"><defs/><g><g transform="translate(10,5) scale(1,1)"><path fill="none" stroke="#000000" d="M 0 5 L 694 5 L 694 599 L 0 599 L 0 5" stroke-miterlimit="10"/></g><g transform="translate(10,5) scale(1,1)"><path fill="#ffffff" stroke="none" d="M 0 5 L 0 27 L 185.7998046875 27 L 196.7998046875 16 L 196.7998046875 5 L 0 5"/></g><g transform="translate(10,5) scale(1,1)"><path fill="none" stroke="#000000" d="M 0 5 L 0 27 L 185.7998046875 27 L 196.7998046875 16 L 196.7998046875 5 L 0 5 L 0 5" stroke-miterlimit="10"/></g><g transform="translate(10,5) scale(1,1)"><g><path fill="none" stroke="none"/><text fill="#000000" stroke="none" font-family="Arial" font-size="13px" font-style="normal" font-weight="normal" text-decoration="none" x="70.97900390625" y="22.5">PickUpGroundItem</text></g></g><g transform="translate(10,5) scale(1,1)"><g><path fill="none" stroke="none"/><text fill="#000000" stroke="none" font-family="Arial" font-size="13px" font-style="normal" font-weight="bold" text-decoration="none" x="5" y="22.5">interaction</text></g></g><g transform="translate(10,5) scale(1,1)"><path fill="#ffffff" stroke="none" d="M 67.2186141690341 47.3 C 67.2186141690341 43.82060576 70.09701589121592 41 73.647705078125 41 C 77.19839426503408 41 80.0767959872159 43.82060576 80.0767959872159 47.3 C 80.0767959872159 50.779394239999995 77.19839426503408 53.6 73.647705078125 53.6 C 70.09701589121592 53.6 67.2186141690341 50.779394239999995 67.2186141690341 47.3 Z"/></g><g transform="translate(10,5) scale(1,1)"><path fill="none" stroke="#000000" d="M 67.2186141690341 47.3 C 67.2186141690341 43.82060576 70.09701589121592 41 73.647705078125 41 C 77.19839426503408 41 80.0767959872159 43.82060576 80.0767959872159 47.3 C 80.0767959872159 50.779394239999995 77.19839426503408 53.6 73.647705078125 53.6 C 70.09701589121592 53.6 67.2186141690341 50.779394239999995 67.2186141690341 47.3 Z" stroke-miterlimit="10"/></g><g transform="translate(10,5) scale(1,1)"><path fill="none" stroke="#000000" d="M 73.647705078125 53.6 L 73.647705078125 66.4" stroke-miterlimit="10"/></g><g transform="translate(10,5) scale(1,1)"><path fill="none" stroke="#000000" d="M 66.84043235085227 58.4 L 80.45497780539773 58.4" stroke-miterlimit="10"/></g><g transform="translate(10,5) scale(1,1)"><path fill="none" stroke="#000000" d="M 73.647705078125 66.4 L 64.19315962357955 79" stroke-miterlimit="10"/></g><g transform="translate(10,5) scale(1,1)"><path fill="none" stroke="#000000" d="M 73.647705078125 66.4 L 83.10225053267045 79" stroke-miterlimit="10"/></g><g transform="translate(10,5) scale(1,1)"><g><path fill="none" stroke="none"/><text fill="#000000" stroke="none" font-family="Arial" font-size="13px" font-style="normal" font-weight="bold" text-decoration="none" x="55.947265625" y="99.5">: Hero</text></g></g><g transform="translate(10,5) scale(1,1)"><path fill="none" stroke="#000000" d="M 74.5 105 L 74.5 334" stroke-miterlimit="10" stroke-dasharray="3"/></g><g transform="translate(10,5) scale(1,1)"><rect fill="#C0C0C0" stroke="none" x="143" y="47" width="114.3544921875" height="39" opacity="0.2"/></g><g transform="translate(10,5) scale(1,1)"><rect fill="#ffffff" stroke="none" x="136" y="40" width="114.3544921875" height="39"/></g><g transform="translate(10,5) scale(1,1)"><path fill="none" stroke="#000000" d="M 136 40 L 250.3544921875 40 L 250.3544921875 79 L 136 79 L 136 40 Z Z" stroke-miterlimit="10"/></g><g transform="translate(10,5) scale(1,1)"><g><path fill="none" stroke="none"/><text fill="#000000" stroke="none" font-family="Arial" font-size="13px" font-style="normal" font-weight="bold" text-decoration="none" x="148.7373046875" y="59.5">LabyrinthGame</text></g></g><g transform="translate(10,5) scale(1,1)"><path fill="none" stroke="#000000" d="M 194.5 80 L 194.5 336" stroke-miterlimit="10" stroke-dasharray="3"/></g><g transform="translate(10,5) scale(1,1)"><rect fill="#C0C0C0" stroke="none" x="375" y="47" width="71.736328125" height="39" opacity="0.2"/></g><g transform="translate(10,5) scale(1,1)"><rect fill="#ffffff" stroke="none" x="368" y="40" width="71.736328125" height="39"/></g><g transform="translate(10,5) scale(1,1)"><path fill="none" stroke="#000000" d="M 368 40 L 439.736328125 40 L 439.736328125 79 L 368 79 L 368 40 Z Z" stroke-miterlimit="10"/></g><g transform="translate(10,5) scale(1,1)"><g><path fill="none" stroke="none"/><text fill="#000000" stroke="none" font-family="Arial" font-size="13px" font-style="normal" font-weight="bold" text-decoration="none" x="386.529541015625" y="59.5">Room</text></g></g><g transform="translate(10,5) scale(1,1)"><path fill="none" stroke="#000000" d="M 404.5 80 L 404.5 336" stroke-miterlimit="10" stroke-dasharray="3"/></g><g transform="translate(10,5) scale(1,1)"><rect fill="#C0C0C0" stroke="none" x="527" y="47" width="92.66455078125" height="39" opacity="0.2"/></g><g transform="translate(10,5) scale(1,1)"><rect fill="#ffffff" stroke="none" x="520" y="40" width="92.66455078125" height="39"/></g><g transform="translate(10,5) scale(1,1)"><path fill="none" stroke="#000000" d="M 520 40 L 612.66455078125 40 L 612.66455078125 79 L 520 79 L 520 40 Z Z" stroke-miterlimit="10"/></g><g transform="translate(10,5) scale(1,1)"><g><path fill="none" stroke="none"/><text fill="#000000" stroke="none" font-family="Arial" font-size="13px" font-style="normal" font-weight="bold" text-decoration="none" x="532.010498046875" y="59.5">GroundItem</text></g></g><g transform="translate(10,5) scale(1,1)"><path fill="none" stroke="#000000" d="M 567.5 80 L 567.5 336" stroke-miterlimit="10" stroke-dasharray="3"/></g><g transform="translate(10,5) scale(1,1)"><path fill="none" stroke="#000000" d="M 8 184 L 655 184 L 655 312 L 8 312 L 8 184" stroke-miterlimit="10"/></g><g transform="translate(10,5) scale(1,1)"><path fill="#ffffff" stroke="none" d="M 8 184 L 8 206 L 42.07177734375 206 L 53.07177734375 195 L 53.07177734375 184 L 8 184"/></g><g transform="translate(10,5) scale(1,1)"><path fill="none" stroke="#000000" d="M 8 184 L 8 206 L 42.07177734375 206 L 53.07177734375 195 L 53.07177734375 184 L 8 184 L 8 184" stroke-miterlimit="10"/></g><g transform="translate(10,5) scale(1,1)"><g><path fill="none" stroke="none"/><text fill="#000000" stroke="none" font-family="Arial" font-size="13px" font-style="normal" font-weight="bold" text-decoration="none" x="13" y="201.5">opt</text></g></g><g transform="translate(10,5) scale(1,1)"><g><path fill="none" stroke="none"/><text fill="#000000" stroke="none" font-family="Arial" font-size="13px" font-style="normal" font-weight="normal" text-decoration="none" x="27.5" y="234.5">[exists]</text></g></g><g transform="translate(10,5) scale(1,1)"><path fill="none" stroke="#000000" d="M 74 122 L 187 122" stroke-miterlimit="10"/></g><g transform="translate(10,5) scale(1,1)"><path fill="#000000" stroke="none" d="M 176.83732514237585 126.20951775601598 L 187 122 L 176.83732514237585 117.79048224398402"/></g><g transform="translate(10,5) scale(1,1)"><path fill="none" stroke="#000000" d="M 176.83732514237585 126.20951775601598 L 187 122 L 176.83732514237585 117.79048224398402 L 176.83732514237585 126.20951775601598" stroke-miterlimit="10"/></g><g transform="translate(10,5) scale(1,1)"><g><path fill="none" stroke="none"/><text fill="#000000" stroke="none" font-family="Arial" font-size="13px" font-style="normal" font-weight="normal" text-decoration="none" x="104.594970703125" y="118.5">1 : move</text></g></g><g transform="translate(10,5) scale(1,1)"><rect fill="#ffffff" stroke="none" x="187" y="122" width="13" height="166"/></g><g transform="translate(10,5) scale(1,1)"><path fill="none" stroke="#000000" d="M 187 122 L 200 122 L 200 288 L 187 288 L 187 122 Z Z" stroke-miterlimit="10"/></g><g transform="translate(10,5) scale(1,1)"><path fill="none" stroke="#000000" d="M 200 130 L 397 130" stroke-miterlimit="10"/></g><g transform="translate(10,5) scale(1,1)"><path fill="#000000" stroke="none" d="M 386.83732514237585 134.209517756016 L 397 130 L 386.83732514237585 125.79048224398402"/></g><g transform="translate(10,5) scale(1,1)"><path fill="none" stroke="#000000" d="M 386.83732514237585 134.209517756016 L 397 130 L 386.83732514237585 125.79048224398402 L 386.83732514237585 134.209517756016" stroke-miterlimit="10"/></g><g transform="translate(10,5) scale(1,1)"><g><path fill="none" stroke="none"/><text fill="#000000" stroke="none" font-family="Arial" font-size="13px" font-style="normal" font-weight="normal" text-decoration="none" x="237.5" y="126.5">2 : checkGroundItem</text></g></g><g transform="translate(10,5) scale(1,1)"><rect fill="#ffffff" stroke="none" x="397" y="130" width="13" height="38"/></g><g transform="translate(10,5) scale(1,1)"><path fill="none" stroke="#000000" d="M 397 130 L 410 130 L 410 168 L 397 168 L 397 130 Z Z" stroke-miterlimit="10"/></g><g transform="translate(10,5) scale(1,1)"><path fill="none" stroke="#000000" d="M 397 160 L 200 160" stroke-miterlimit="10" stroke-dasharray="3"/></g><g transform="translate(10,5) scale(1,1)"><path fill="none" stroke="#000000" d="M 210.16267485762415 155.790482243984 L 200 160 L 210.16267485762415 164.209517756016" stroke-miterlimit="10"/></g><g transform="translate(10,5) scale(1,1)"><g><path fill="none" stroke="none"/><text fill="#000000" stroke="none" font-family="Arial" font-size="13px" font-style="normal" font-weight="normal" text-decoration="none" x="219.5" y="179.5">3 : exists = groundItemExists</text></g></g><g transform="translate(10,5) scale(1,1)"><path fill="none" stroke="#000000" d="M 200 222 L 397 222" stroke-miterlimit="10"/></g><g transform="translate(10,5) scale(1,1)"><path fill="#000000" stroke="none" d="M 386.83732514237585 226.209517756016 L 397 222 L 386.83732514237585 217.790482243984"/></g><g transform="translate(10,5) scale(1,1)"><path fill="none" stroke="#000000" d="M 386.83732514237585 226.209517756016 L 397 222 L 386.83732514237585 217.790482243984 L 386.83732514237585 226.209517756016" stroke-miterlimit="10"/></g><g transform="translate(10,5) scale(1,1)"><g><path fill="none" stroke="none"/><text fill="#000000" stroke="none" font-family="Arial" font-size="13px" font-style="normal" font-weight="normal" text-decoration="none" x="262.114990234375" y="218.5">4 : getRoom</text></g></g><g transform="translate(10,5) scale(1,1)"><rect fill="#ffffff" stroke="none" x="397" y="222" width="13" height="28"/></g><g transform="translate(10,5) scale(1,1)"><path fill="none" stroke="#000000" d="M 397 222 L 410 222 L 410 250 L 397 250 L 397 222 Z Z" stroke-miterlimit="10"/></g><g transform="translate(10,5) scale(1,1)"><path fill="none" stroke="#000000" d="M 410 232 L 560 232" stroke-miterlimit="10"/></g><g transform="translate(10,5) scale(1,1)"><path fill="#000000" stroke="none" d="M 549.8373251423759 236.209517756016 L 560 232 L 549.8373251423758 227.790482243984"/></g><g transform="translate(10,5) scale(1,1)"><path fill="none" stroke="#000000" d="M 549.8373251423759 236.209517756016 L 560 232 L 549.8373251423758 227.790482243984 L 549.8373251423759 236.209517756016" stroke-miterlimit="10"/></g><g transform="translate(10,5) scale(1,1)"><g><path fill="none" stroke="none"/><text fill="#000000" stroke="none" font-family="Arial" font-size="13px" font-style="normal" font-weight="normal" text-decoration="none" x="432.5" y="228.5">5 : getGroundItem</text></g></g><g transform="translate(10,5) scale(1,1)"><rect fill="#ffffff" stroke="none" x="560" y="232" width="13" height="40"/></g><g transform="translate(10,5) scale(1,1)"><path fill="none" stroke="#000000" d="M 560 232 L 573 232 L 573 272 L 560 272 L 560 232 Z Z" stroke-miterlimit="10"/></g><g transform="translate(10,5) scale(1,1)"><path fill="none" stroke="#000000" d="M 560 264 L 80 264" stroke-miterlimit="10"/></g><g transform="translate(10,5) scale(1,1)"><path fill="#000000" stroke="none" d="M 90.16267485762415 259.790482243984 L 80 264 L 90.16267485762415 268.209517756016"/></g><g transform="translate(10,5) scale(1,1)"><path fill="none" stroke="#000000" d="M 90.16267485762415 259.790482243984 L 80 264 L 90.16267485762415 268.209517756016 L 90.16267485762415 259.790482243984" stroke-miterlimit="10"/></g><g transform="translate(10,5) scale(1,1)"><g><path fill="none" stroke="none"/><text fill="#000000" stroke="none" font-family="Arial" font-size="13px" font-style="normal" font-weight="normal" text-decoration="none" x="274.5" y="280.5">6 : applyEffects</text></g></g><g transform="translate(10,5) scale(1,1)"><rect fill="#ffffff" stroke="none" x="67" y="264" width="13" height="28"/></g><g transform="translate(10,5) scale(1,1)"><path fill="none" stroke="#000000" d="M 67 264 L 80 264 L 80 292 L 67 292 L 67 264 Z Z" stroke-miterlimit="10"/></g></g></svg>