<svg version="1.1" xmlns="http://www.w3.org/2000/svg" xmlns:xlink="http://www.w3.org/1999/xlink" width="714" height="508"><defs/><g><g transform="translate(5,10) scale(1,1)"><path fill="none" stroke="#000000" d="M 5 0 L 699 0 L 699 488 L 5 488 L 5 0" stroke-miterlimit="10"/></g><g transform="translate(5,10) scale(1,1)"><path fill="#ffffff" stroke="none" d="M 5 0 L 5 22 L 141.6689453125 22 L 152.6689453125 11 L 152.6689453125 0 L 5 0"/></g><g transform="translate(5,10) scale(1,1)"><path fill="none" stroke="#000000" d="M 5 0 L 5 22 L 141.6689453125 22 L 152.6689453125 11 L 152.6689453125 0 L 5 0 L 5 0" stroke-miterlimit="10"/></g><g transform="translate(5,10) scale(1,1)"><g><path fill="none" stroke="none"/><text fill="#000000" stroke="none" font-family="Arial" font-size="13px" font-style="normal" font-weight="normal" text-decoration="none" x="75.97900390625" y="17.5">Movement</text></g></g><g transform="translate(5,10) scale(1,1)"><g><path fill="none" stroke="none"/><text fill="#000000" stroke="none" font-family="Arial" font-size="13px" font-style="normal" font-weight="bold" text-decoration="none" x="10" y="17.5">interaction</text></g></g><g transform="translate(5,10) scale(1,1)"><path fill="#ffffff" stroke="none" d="M 55.92540127840909 47.3 C 55.92540127840909 43.82060576 58.80380300059091 41 62.3544921875 41 C 65.9051813744091 41 68.7835830965909 43.82060576 68.7835830965909 47.3 C 68.7835830965909 50.779394239999995 65.9051813744091 53.6 62.3544921875 53.6 C 58.80380300059091 53.6 55.92540127840909 50.779394239999995 55.92540127840909 47.3 Z"/></g><g transform="translate(5,10) scale(1,1)"><path fill="none" stroke="#000000" d="M 55.92540127840909 47.3 C 55.92540127840909 43.82060576 58.80380300059091 41 62.3544921875 41 C 65.9051813744091 41 68.7835830965909 43.82060576 68.7835830965909 47.3 C 68.7835830965909 50.779394239999995 65.9051813744091 53.6 62.3544921875 53.6 C 58.80380300059091 53.6 55.92540127840909 50.779394239999995 55.92540127840909 47.3 Z" stroke-miterlimit="10"/></g><g transform="translate(5,10) scale(1,1)"><path fill="none" stroke="#000000" d="M 62.3544921875 53.6 L 62.3544921875 66.4" stroke-miterlimit="10"/></g><g transform="translate(5,10) scale(1,1)"><path fill="none" stroke="#000000" d="M 55.547219460227275 58.4 L 69.16176491477273 58.4" stroke-miterlimit="10"/></g><g transform="translate(5,10) scale(1,1)"><path fill="none" stroke="#000000" d="M 62.3544921875 66.4 L 52.89994673295455 79" stroke-miterlimit="10"/></g><g transform="translate(5,10) scale(1,1)"><path fill="none" stroke="#000000" d="M 62.3544921875 66.4 L 71.80903764204545 79" stroke-miterlimit="10"/></g><g transform="translate(5,10) scale(1,1)"><g><path fill="none" stroke="none"/><text fill="#000000" stroke="none" font-family="Arial" font-size="13px" font-style="normal" font-weight="bold" text-decoration="none" x="40.318603515625" y="99.5">: Player</text></g></g><g transform="translate(5,10) scale(1,1)"><path fill="none" stroke="#000000" d="M 63.5 105 L 63.5 480" stroke-miterlimit="10" stroke-dasharray="3"/></g><g transform="translate(5,10) scale(1,1)"><rect fill="#C0C0C0" stroke="none" x="135" y="47" width="114.3544921875" height="39" opacity="0.2"/></g><g transform="translate(5,10) scale(1,1)"><rect fill="#ffffff" stroke="none" x="128" y="40" width="114.3544921875" height="39"/></g><g transform="translate(5,10) scale(1,1)"><path fill="none" stroke="#000000" d="M 128 40 L 242.3544921875 40 L 242.3544921875 79 L 128 79 L 128 40 Z Z" stroke-miterlimit="10"/></g><g transform="translate(5,10) scale(1,1)"><g><path fill="none" stroke="none"/><text fill="#000000" stroke="none" font-family="Arial" font-size="13px" font-style="normal" font-weight="bold" text-decoration="none" x="140.7373046875" y="59.5">LabyrinthGame</text></g></g><g transform="translate(5,10) scale(1,1)"><path fill="none" stroke="#000000" d="M 186.5 80 L 186.5 480" stroke-miterlimit="10" stroke-dasharray="3"/></g><g transform="translate(5,10) scale(1,1)"><rect fill="#C0C0C0" stroke="none" x="351" y="47" width="71.736328125" height="39" opacity="0.2"/></g><g transform="translate(5,10) scale(1,1)"><rect fill="#ffffff" stroke="none" x="344" y="40" width="71.736328125" height="39"/></g><g transform="translate(5,10) scale(1,1)"><path fill="none" stroke="#000000" d="M 344 40 L 415.736328125 40 L 415.736328125 79 L 344 79 L 344 40 Z Z" stroke-miterlimit="10"/></g><g transform="translate(5,10) scale(1,1)"><g><path fill="none" stroke="none"/><text fill="#000000" stroke="none" font-family="Arial" font-size="13px" font-style="normal" font-weight="bold" text-decoration="none" x="362.529541015625" y="59.5">Room</text></g></g><g transform="translate(5,10) scale(1,1)"><path fill="none" stroke="#000000" d="M 380.5 80 L 380.5 480" stroke-miterlimit="10" stroke-dasharray="3"/></g><g transform="translate(5,10) scale(1,1)"><rect fill="#C0C0C0" stroke="none" x="471" y="47" width="92.66455078125" height="39" opacity="0.2"/></g><g transform="translate(5,10) scale(1,1)"><rect fill="#ffffff" stroke="none" x="464" y="40" width="92.66455078125" height="39"/></g><g transform="translate(5,10) scale(1,1)"><path fill="none" stroke="#000000" d="M 464 40 L 556.66455078125 40 L 556.66455078125 79 L 464 79 L 464 40 Z Z" stroke-miterlimit="10"/></g><g transform="translate(5,10) scale(1,1)"><g><path fill="none" stroke="none"/><text fill="#000000" stroke="none" font-family="Arial" font-size="13px" font-style="normal" font-weight="bold" text-decoration="none" x="476.010498046875" y="59.5">GroundItem</text></g></g><g transform="translate(5,10) scale(1,1)"><path fill="none" stroke="#000000" d="M 511.5 80 L 511.5 480" stroke-miterlimit="10" stroke-dasharray="3"/></g><g transform="translate(5,10) scale(1,1)"><path fill="#ffffff" stroke="none" d="M 635.218614169034 47.3 C 635.218614169034 43.82060576 638.097015891216 41 641.647705078125 41 C 645.198394265034 41 648.0767959872159 43.82060576 648.0767959872159 47.3 C 648.0767959872159 50.779394239999995 645.198394265034 53.6 641.647705078125 53.6 C 638.097015891216 53.6 635.218614169034 50.779394239999995 635.218614169034 47.3 Z"/></g><g transform="translate(5,10) scale(1,1)"><path fill="none" stroke="#000000" d="M 635.218614169034 47.3 C 635.218614169034 43.82060576 638.097015891216 41 641.647705078125 41 C 645.198394265034 41 648.0767959872159 43.82060576 648.0767959872159 47.3 C 648.0767959872159 50.779394239999995 645.198394265034 53.6 641.647705078125 53.6 C 638.097015891216 53.6 635.218614169034 50.779394239999995 635.218614169034 47.3 Z" stroke-miterlimit="10"/></g><g transform="translate(5,10) scale(1,1)"><path fill="none" stroke="#000000" d="M 641.647705078125 53.6 L 641.647705078125 66.4" stroke-miterlimit="10"/></g><g transform="translate(5,10) scale(1,1)"><path fill="none" stroke="#000000" d="M 634.8404323508522 58.4 L 648.4549778053977 58.4" stroke-miterlimit="10"/></g><g transform="translate(5,10) scale(1,1)"><path fill="none" stroke="#000000" d="M 641.647705078125 66.4 L 632.1931596235795 79" stroke-miterlimit="10"/></g><g transform="translate(5,10) scale(1,1)"><path fill="none" stroke="#000000" d="M 641.647705078125 66.4 L 651.1022505326704 79" stroke-miterlimit="10"/></g><g transform="translate(5,10) scale(1,1)"><g><path fill="none" stroke="none"/><text fill="#000000" stroke="none" font-family="Arial" font-size="13px" font-style="normal" font-weight="bold" text-decoration="none" x="623.947265625" y="99.5">: Hero</text></g></g><g transform="translate(5,10) scale(1,1)"><path fill="none" stroke="#000000" d="M 642.5 105 L 642.5 480" stroke-miterlimit="10" stroke-dasharray="3"/></g><g transform="translate(5,10) scale(1,1)"><path fill="none" stroke="#000000" d="M 8 208 L 671 208 L 671 480 L 8 480 L 8 208" stroke-miterlimit="10"/></g><g transform="translate(5,10) scale(1,1)"><path fill="#ffffff" stroke="none" d="M 8 208 L 8 230 L 37.72998046875 230 L 48.72998046875 219 L 48.72998046875 208 L 8 208"/></g><g transform="translate(5,10) scale(1,1)"><path fill="none" stroke="#000000" d="M 8 208 L 8 230 L 37.72998046875 230 L 48.72998046875 219 L 48.72998046875 208 L 8 208 L 8 208" stroke-miterlimit="10"/></g><g transform="translate(5,10) scale(1,1)"><g><path fill="none" stroke="none"/><text fill="#000000" stroke="none" font-family="Arial" font-size="13px" font-style="normal" font-weight="bold" text-decoration="none" x="13" y="225.5">alt</text></g></g><g transform="translate(5,10) scale(1,1)"><g><path fill="none" stroke="none"/><text fill="#000000" stroke="none" font-family="Arial" font-size="13px" font-style="normal" font-weight="normal" text-decoration="none" x="27.5" y="258.5">[!exists]</text></g></g><g transform="translate(5,10) scale(1,1)"><path fill="none" stroke="#000000" d="M 8 297 L 671 297" stroke-miterlimit="10" stroke-dasharray="10,3"/></g><g transform="translate(5,10) scale(1,1)"><g><path fill="none" stroke="none"/><text fill="#000000" stroke="none" font-family="Arial" font-size="13px" font-style="normal" font-weight="normal" text-decoration="none" x="27.5" y="324.5">[exists]</text></g></g><g transform="translate(5,10) scale(1,1)"><path fill="none" stroke="#000000" d="M 80 408 L 663 408 L 663 473 L 80 473 L 80 408" stroke-miterlimit="10"/></g><g transform="translate(5,10) scale(1,1)"><path fill="#ffffff" stroke="none" d="M 80 408 L 80 430 L 114.07177734375 430 L 125.07177734375 419 L 125.07177734375 408 L 80 408"/></g><g transform="translate(5,10) scale(1,1)"><path fill="none" stroke="#000000" d="M 80 408 L 80 430 L 114.07177734375 430 L 125.07177734375 419 L 125.07177734375 408 L 80 408 L 80 408" stroke-miterlimit="10"/></g><g transform="translate(5,10) scale(1,1)"><g><path fill="none" stroke="none"/><text fill="#000000" stroke="none" font-family="Arial" font-size="13px" font-style="normal" font-weight="bold" text-decoration="none" x="85" y="425.5">opt</text></g></g><g transform="translate(5,10) scale(1,1)"><g><path fill="none" stroke="none"/><text fill="#000000" stroke="none" font-family="Arial" font-size="13px" font-style="normal" font-weight="normal" text-decoration="none" x="99.5" y="458.5">[canMove]</text></g></g><g transform="translate(5,10) scale(1,1)"><path fill="none" stroke="#000000" d="M 63 128 L 179 128" stroke-miterlimit="10"/></g><g transform="translate(5,10) scale(1,1)"><path fill="#000000" stroke="none" d="M 168.83732514237585 132.209517756016 L 179 128 L 168.83732514237585 123.79048224398402"/></g><g transform="translate(5,10) scale(1,1)"><path fill="none" stroke="#000000" d="M 168.83732514237585 132.209517756016 L 179 128 L 168.83732514237585 123.79048224398402 L 168.83732514237585 132.209517756016" stroke-miterlimit="10"/></g><g transform="translate(5,10) scale(1,1)"><g><path fill="none" stroke="none"/><text fill="#000000" stroke="none" font-family="Arial" font-size="13px" font-style="normal" font-weight="normal" text-decoration="none" x="71.5" y="124.5">1 : askMovement</text></g></g><g transform="translate(5,10) scale(1,1)"><rect fill="#ffffff" stroke="none" x="179" y="128" width="13" height="320"/></g><g transform="translate(5,10) scale(1,1)"><path fill="none" stroke="#000000" d="M 179 128 L 192 128 L 192 448 L 179 448 L 179 128 Z Z" stroke-miterlimit="10"/></g><g transform="translate(5,10) scale(1,1)"><path fill="none" stroke="#000000" d="M 192 140 L 373 140" stroke-miterlimit="10"/></g><g transform="translate(5,10) scale(1,1)"><path fill="#000000" stroke="none" d="M 362.83732514237585 144.209517756016 L 373 140 L 362.83732514237585 135.790482243984"/></g><g transform="translate(5,10) scale(1,1)"><path fill="none" stroke="#000000" d="M 362.83732514237585 144.209517756016 L 373 140 L 362.83732514237585 135.790482243984 L 362.83732514237585 144.209517756016" stroke-miterlimit="10"/></g><g transform="translate(5,10) scale(1,1)"><g><path fill="none" stroke="none"/><text fill="#000000" stroke="none" font-family="Arial" font-size="13px" font-style="normal" font-weight="normal" text-decoration="none" x="222.135009765625" y="136.5">2 : checkGroundItem</text></g></g><g transform="translate(5,10) scale(1,1)"><rect fill="#ffffff" stroke="none" x="373" y="140" width="13" height="52"/></g><g transform="translate(5,10) scale(1,1)"><path fill="none" stroke="#000000" d="M 373 140 L 386 140 L 386 192 L 373 192 L 373 140 Z Z" stroke-miterlimit="10"/></g><g transform="translate(5,10) scale(1,1)"><path fill="none" stroke="#000000" d="M 373 178 L 192 178" stroke-miterlimit="10" stroke-dasharray="3"/></g><g transform="translate(5,10) scale(1,1)"><path fill="none" stroke="#000000" d="M 202.16267485762415 173.790482243984 L 192 178 L 202.16267485762415 182.209517756016" stroke-miterlimit="10"/></g><g transform="translate(5,10) scale(1,1)"><g><path fill="none" stroke="none"/><text fill="#000000" stroke="none" font-family="Arial" font-size="13px" font-style="normal" font-weight="normal" text-decoration="none" x="197.5" y="194.5">3 : exists = groundItemExists</text></g></g><g transform="translate(5,10) scale(1,1)"><path fill="none" stroke="#000000" d="M 192 248 L 635 248" stroke-miterlimit="10"/></g><g transform="translate(5,10) scale(1,1)"><path fill="#000000" stroke="none" d="M 624.8373251423759 252.209517756016 L 635 248 L 624.8373251423758 243.790482243984"/></g><g transform="translate(5,10) scale(1,1)"><path fill="none" stroke="#000000" d="M 624.8373251423759 252.209517756016 L 635 248 L 624.8373251423758 243.790482243984 L 624.8373251423759 252.209517756016" stroke-miterlimit="10"/></g><g transform="translate(5,10) scale(1,1)"><g><path fill="none" stroke="none"/><text fill="#000000" stroke="none" font-family="Arial" font-size="13px" font-style="normal" font-weight="normal" text-decoration="none" x="417.594970703125" y="244.5">4 : move</text></g></g><g transform="translate(5,10) scale(1,1)"><rect fill="#ffffff" stroke="none" x="635" y="248" width="13" height="28"/></g><g transform="translate(5,10) scale(1,1)"><path fill="none" stroke="#000000" d="M 635 248 L 648 248 L 648 276 L 635 276 L 635 248 Z Z" stroke-miterlimit="10"/></g><g transform="translate(5,10) scale(1,1)"><path fill="none" stroke="#000000" d="M 192 320 L 373 320" stroke-miterlimit="10"/></g><g transform="translate(5,10) scale(1,1)"><path fill="#000000" stroke="none" d="M 362.83732514237585 324.209517756016 L 373 320 L 362.83732514237585 315.790482243984"/></g><g transform="translate(5,10) scale(1,1)"><path fill="none" stroke="#000000" d="M 362.83732514237585 324.209517756016 L 373 320 L 362.83732514237585 315.790482243984 L 362.83732514237585 324.209517756016" stroke-miterlimit="10"/></g><g transform="translate(5,10) scale(1,1)"><g><path fill="none" stroke="none"/><text fill="#000000" stroke="none" font-family="Arial" font-size="13px" font-style="normal" font-weight="normal" text-decoration="none" x="246.114990234375" y="316.5">5 : getRoom</text></g></g><g transform="translate(5,10) scale(1,1)"><rect fill="#ffffff" stroke="none" x="373" y="320" width="13" height="28"/></g><g transform="translate(5,10) scale(1,1)"><path fill="none" stroke="#000000" d="M 373 320 L 386 320 L 386 348 L 373 348 L 373 320 Z Z" stroke-miterlimit="10"/></g><g transform="translate(5,10) scale(1,1)"><path fill="none" stroke="#000000" d="M 386 328 L 504 328" stroke-miterlimit="10"/></g><g transform="translate(5,10) scale(1,1)"><path fill="#000000" stroke="none" d="M 493.83732514237585 332.209517756016 L 504 328 L 493.83732514237585 323.790482243984"/></g><g transform="translate(5,10) scale(1,1)"><path fill="none" stroke="#000000" d="M 493.83732514237585 332.209517756016 L 504 328 L 493.83732514237585 323.790482243984 L 493.83732514237585 332.209517756016" stroke-miterlimit="10"/></g><g transform="translate(5,10) scale(1,1)"><g><path fill="none" stroke="none"/><text fill="#000000" stroke="none" font-family="Arial" font-size="13px" font-style="normal" font-weight="normal" text-decoration="none" x="392.5" y="324.5">6 : getGroundItem</text></g></g><g transform="translate(5,10) scale(1,1)"><rect fill="#ffffff" stroke="none" x="504" y="328" width="13" height="75"/></g><g transform="translate(5,10) scale(1,1)"><path fill="none" stroke="#000000" d="M 504 328 L 517 328 L 517 403 L 504 403 L 504 328 Z Z" stroke-miterlimit="10"/></g><g transform="translate(5,10) scale(1,1)"><path fill="none" stroke="#000000" d="M 517 352 L 547 352 L 547 372 L 524 372" stroke-miterlimit="10"/></g><g transform="translate(5,10) scale(1,1)"><path fill="#000000" stroke="none" d="M 534.1626748576241 367.790482243984 L 524 372 L 534.1626748576241 376.209517756016"/></g><g transform="translate(5,10) scale(1,1)"><path fill="none" stroke="#000000" d="M 534.1626748576241 367.790482243984 L 524 372 L 534.1626748576241 376.209517756016 L 534.1626748576241 367.790482243984" stroke-miterlimit="10"/></g><g transform="translate(5,10) scale(1,1)"><g><path fill="none" stroke="none"/><text fill="#000000" stroke="none" font-family="Arial" font-size="13px" font-style="normal" font-weight="normal" text-decoration="none" x="518.5" y="348.5">7 : canPassThrough</text></g></g><g transform="translate(5,10) scale(1,1)"><rect fill="#ffffff" stroke="none" x="511" y="372" width="13" height="28"/></g><g transform="translate(5,10) scale(1,1)"><path fill="none" stroke="#000000" d="M 511 372 L 524 372 L 524 400 L 511 400 L 511 372 Z Z" stroke-miterlimit="10"/></g><g transform="translate(5,10) scale(1,1)"><path fill="none" stroke="#000000" d="M 511 386 L 192 386" stroke-miterlimit="10" stroke-dasharray="3"/></g><g transform="translate(5,10) scale(1,1)"><path fill="none" stroke="#000000" d="M 202.16267485762415 381.790482243984 L 192 386 L 202.16267485762415 390.209517756016" stroke-miterlimit="10"/></g><g transform="translate(5,10) scale(1,1)"><g><path fill="none" stroke="none"/><text fill="#000000" stroke="none" font-family="Arial" font-size="13px" font-style="normal" font-weight="normal" text-decoration="none" x="263.5" y="403.5">8 : canMove = groundItemAvailable</text></g></g><g transform="translate(5,10) scale(1,1)"><path fill="none" stroke="#000000" d="M 192 434 L 635 434" stroke-miterlimit="10"/></g><g transform="translate(5,10) scale(1,1)"><path fill="#000000" stroke="none" d="M 624.8373251423759 438.209517756016 L 635 434 L 624.8373251423758 429.790482243984"/></g><g transform="translate(5,10) scale(1,1)"><path fill="none" stroke="#000000" d="M 624.8373251423759 438.209517756016 L 635 434 L 624.8373251423758 429.790482243984 L 624.8373251423759 438.209517756016" stroke-miterlimit="10"/></g><g transform="translate(5,10) scale(1,1)"><g><path fill="none" stroke="none"/><text fill="#000000" stroke="none" font-family="Arial" font-size="13px" font-style="normal" font-weight="normal" text-decoration="none" x="387.594970703125" y="430.5">9 : move</text></g></g><g transform="translate(5,10) scale(1,1)"><rect fill="#ffffff" stroke="none" x="635" y="434" width="13" height="28"/></g><g transform="translate(5,10) scale(1,1)"><path fill="none" stroke="#000000" d="M 635 434 L 648 434 L 648 462 L 635 462 L 635 434 Z Z" stroke-miterlimit="10"/></g></g></svg>